<mxfile host="app.diagrams.net" agent="Mozilla/5.0 (Macintosh; Intel Mac OS X 10_15_7) AppleWebKit/605.1.15 (KHTML, like Gecko) Version/18.1.1 Safari/605.1.15" version="26.0.3">
  <diagram name="Pagina-1" id="ZAZUVIiVqxnmBNGIGS4P">
    <mxGraphModel grid="1" page="1" gridSize="10" guides="1" tooltips="1" connect="1" arrows="1" fold="1" pageScale="1" pageWidth="1169" pageHeight="827" math="0" shadow="0">
      <root>
        <mxCell id="0" />
        <mxCell id="1" parent="0" />
        <mxCell id="_WFTsrjcb9pCngMvxU52-91" style="edgeStyle=orthogonalEdgeStyle;rounded=0;orthogonalLoop=1;jettySize=auto;html=1;" edge="1" parent="1" source="_WFTsrjcb9pCngMvxU52-2" target="_WFTsrjcb9pCngMvxU52-3">
          <mxGeometry relative="1" as="geometry" />
        </mxCell>
        <mxCell id="_WFTsrjcb9pCngMvxU52-2" value="&lt;font&gt;Notify US of the outcome&lt;/font&gt;" style="points=[[0.25,0,0],[0.5,0,0],[0.75,0,0],[1,0.25,0],[1,0.5,0],[1,0.75,0],[0.75,1,0],[0.5,1,0],[0.25,1,0],[0,0.75,0],[0,0.5,0],[0,0.25,0]];shape=mxgraph.bpmn.task;whiteSpace=wrap;rectStyle=rounded;size=10;html=1;container=1;expand=0;collapsible=0;taskMarker=abstract;" vertex="1" parent="1">
          <mxGeometry x="2470" y="167.93000000000006" width="96" height="54.5" as="geometry" />
        </mxCell>
        <mxCell id="_WFTsrjcb9pCngMvxU52-3" value="" style="points=[[0.145,0.145,0],[0.5,0,0],[0.855,0.145,0],[1,0.5,0],[0.855,0.855,0],[0.5,1,0],[0.145,0.855,0],[0,0.5,0]];shape=mxgraph.bpmn.event;html=1;verticalLabelPosition=bottom;labelBackgroundColor=#ffffff;verticalAlign=top;align=center;perimeter=ellipsePerimeter;outlineConnect=0;aspect=fixed;outline=end;symbol=terminate2;" vertex="1" parent="1">
          <mxGeometry x="2650" y="175.17999999999995" width="40" height="40" as="geometry" />
        </mxCell>
        <mxCell id="_WFTsrjcb9pCngMvxU52-7" value="&lt;font&gt;Notify US of interview&lt;/font&gt;" style="points=[[0.25,0,0],[0.5,0,0],[0.75,0,0],[1,0.25,0],[1,0.5,0],[1,0.75,0],[0.75,1,0],[0.5,1,0],[0.25,1,0],[0,0.75,0],[0,0.5,0],[0,0.25,0]];shape=mxgraph.bpmn.task;whiteSpace=wrap;rectStyle=rounded;size=10;html=1;container=1;expand=0;collapsible=0;taskMarker=abstract;" vertex="1" parent="1">
          <mxGeometry x="1724" y="300" width="96" height="54.48" as="geometry" />
        </mxCell>
        <mxCell id="_WFTsrjcb9pCngMvxU52-8" style="edgeStyle=orthogonalEdgeStyle;rounded=0;orthogonalLoop=1;jettySize=auto;html=1;entryX=0;entryY=0.5;entryDx=0;entryDy=0;entryPerimeter=0;" edge="1" parent="1" source="_WFTsrjcb9pCngMvxU52-9" target="_WFTsrjcb9pCngMvxU52-19">
          <mxGeometry relative="1" as="geometry">
            <mxPoint x="1303.9999999999998" y="249.55000000000018" as="targetPoint" />
          </mxGeometry>
        </mxCell>
        <mxCell id="_WFTsrjcb9pCngMvxU52-9" value="" style="points=[[0.145,0.145,0],[0.5,0,0],[0.855,0.145,0],[1,0.5,0],[0.855,0.855,0],[0.5,1,0],[0.145,0.855,0],[0,0.5,0]];shape=mxgraph.bpmn.event;html=1;verticalLabelPosition=bottom;labelBackgroundColor=#ffffff;verticalAlign=top;align=center;perimeter=ellipsePerimeter;outlineConnect=0;aspect=fixed;outline=standard;symbol=general;" vertex="1" parent="1">
          <mxGeometry x="1199.999387755102" y="175.18236842105262" width="40" height="40" as="geometry" />
        </mxCell>
        <mxCell id="_WFTsrjcb9pCngMvxU52-13" value="" style="points=[[0.25,0.25,0],[0.5,0,0],[0.75,0.25,0],[1,0.5,0],[0.75,0.75,0],[0.5,1,0],[0.25,0.75,0],[0,0.5,0]];shape=mxgraph.bpmn.gateway2;html=1;verticalLabelPosition=bottom;labelBackgroundColor=#ffffff;verticalAlign=top;align=center;perimeter=rhombusPerimeter;outlineConnect=0;outline=none;symbol=none;gwType=exclusive;aspect=fixed;" vertex="1" parent="1">
          <mxGeometry x="2240.0027431585136" y="175.18459341152732" width="47.42" height="40" as="geometry" />
        </mxCell>
        <mxCell id="_WFTsrjcb9pCngMvxU52-14" value="&lt;font&gt;CO adds questionnaire&lt;/font&gt;" style="text;html=1;strokeColor=none;fillColor=none;align=center;verticalAlign=middle;whiteSpace=wrap;rounded=0;" vertex="1" parent="1">
          <mxGeometry x="1560" y="71" width="131.96" height="11.53" as="geometry" />
        </mxCell>
        <mxCell id="_WFTsrjcb9pCngMvxU52-15" value="&lt;font&gt;CO schedules interview&lt;/font&gt;" style="text;html=1;strokeColor=none;fillColor=none;align=center;verticalAlign=middle;whiteSpace=wrap;rounded=0;" vertex="1" parent="1">
          <mxGeometry x="1560" y="308.78" width="131.96" height="13.78" as="geometry" />
        </mxCell>
        <mxCell id="_WFTsrjcb9pCngMvxU52-16" value="" style="points=[[0.25,0.25,0],[0.5,0,0],[0.75,0.25,0],[1,0.5,0],[0.75,0.75,0],[0.5,1,0],[0.25,0.75,0],[0,0.5,0]];shape=mxgraph.bpmn.gateway2;html=1;verticalLabelPosition=bottom;labelBackgroundColor=#ffffff;verticalAlign=top;align=center;perimeter=rhombusPerimeter;outlineConnect=0;outline=none;symbol=none;gwType=exclusive;aspect=fixed;" vertex="1" parent="1">
          <mxGeometry x="1501.0027431585136" y="175.1845934115271" width="40" height="40" as="geometry" />
        </mxCell>
        <mxCell id="_WFTsrjcb9pCngMvxU52-19" value="&lt;font&gt;Notify match to US and CO&lt;/font&gt;" style="points=[[0.25,0,0],[0.5,0,0],[0.75,0,0],[1,0.25,0],[1,0.5,0],[1,0.75,0],[0.75,1,0],[0.5,1,0],[0.25,1,0],[0,0.75,0],[0,0.5,0],[0,0.25,0]];shape=mxgraph.bpmn.task;whiteSpace=wrap;rectStyle=rounded;size=10;html=1;container=1;expand=0;collapsible=0;taskMarker=abstract;" vertex="1" parent="1">
          <mxGeometry x="1321" y="165.06999999999994" width="99" height="60.23" as="geometry" />
        </mxCell>
        <mxCell id="_WFTsrjcb9pCngMvxU52-20" style="edgeStyle=orthogonalEdgeStyle;rounded=0;orthogonalLoop=1;jettySize=auto;html=1;entryX=0;entryY=0.5;entryDx=0;entryDy=0;entryPerimeter=0;" edge="1" parent="1" source="_WFTsrjcb9pCngMvxU52-19" target="_WFTsrjcb9pCngMvxU52-16">
          <mxGeometry relative="1" as="geometry" />
        </mxCell>
        <mxCell id="_WFTsrjcb9pCngMvxU52-27" value="&lt;font&gt;US fills out the questionnaire&lt;/font&gt;" style="text;html=1;strokeColor=none;fillColor=none;align=center;verticalAlign=middle;whiteSpace=wrap;rounded=0;" vertex="1" parent="1">
          <mxGeometry x="1960.01" y="71" width="157.42" height="10" as="geometry" />
        </mxCell>
        <mxCell id="_WFTsrjcb9pCngMvxU52-35" style="edgeStyle=orthogonalEdgeStyle;rounded=0;orthogonalLoop=1;jettySize=auto;html=1;entryX=0;entryY=0.5;entryDx=0;entryDy=0;entryPerimeter=0;exitX=0.5;exitY=1;exitDx=0;exitDy=0;exitPerimeter=0;" edge="1" parent="1" source="_WFTsrjcb9pCngMvxU52-16" target="_WFTsrjcb9pCngMvxU52-7">
          <mxGeometry relative="1" as="geometry" />
        </mxCell>
        <mxCell id="7FK4IVThT7nhxuMZWU45-1" style="edgeStyle=orthogonalEdgeStyle;rounded=0;orthogonalLoop=1;jettySize=auto;html=1;" edge="1" parent="1" source="_WFTsrjcb9pCngMvxU52-18" target="_WFTsrjcb9pCngMvxU52-13">
          <mxGeometry relative="1" as="geometry" />
        </mxCell>
        <mxCell id="_WFTsrjcb9pCngMvxU52-18" value="&lt;font&gt;Notify US of questionnaire&lt;/font&gt;" style="points=[[0.25,0,0],[0.5,0,0],[0.75,0,0],[1,0.25,0],[1,0.5,0],[1,0.75,0],[0.75,1,0],[0.5,1,0],[0.25,1,0],[0,0.75,0],[0,0.5,0],[0,0.25,0]];shape=mxgraph.bpmn.task;whiteSpace=wrap;rectStyle=rounded;size=10;html=1;container=1;expand=0;collapsible=0;taskMarker=abstract;" vertex="1" parent="1">
          <mxGeometry x="1724" y="40" width="96" height="54.48" as="geometry" />
        </mxCell>
        <mxCell id="_WFTsrjcb9pCngMvxU52-39" style="edgeStyle=orthogonalEdgeStyle;rounded=0;orthogonalLoop=1;jettySize=auto;html=1;entryX=0;entryY=0.5;entryDx=0;entryDy=0;entryPerimeter=0;exitX=0.5;exitY=0;exitDx=0;exitDy=0;exitPerimeter=0;" edge="1" parent="1" source="_WFTsrjcb9pCngMvxU52-16" target="_WFTsrjcb9pCngMvxU52-18">
          <mxGeometry relative="1" as="geometry" />
        </mxCell>
        <mxCell id="_WFTsrjcb9pCngMvxU52-52" value="" style="points=[[0.25,0.25,0],[0.5,0,0],[0.75,0.25,0],[1,0.5,0],[0.75,0.75,0],[0.5,1,0],[0.25,0.75,0],[0,0.5,0]];shape=mxgraph.bpmn.gateway2;html=1;verticalLabelPosition=bottom;labelBackgroundColor=#ffffff;verticalAlign=top;align=center;perimeter=rhombusPerimeter;outlineConnect=0;outline=none;symbol=none;gwType=exclusive;aspect=fixed;" vertex="1" parent="1">
          <mxGeometry x="1900.0027431585136" y="307.24459341152715" width="47.42" height="40" as="geometry" />
        </mxCell>
        <mxCell id="_WFTsrjcb9pCngMvxU52-53" value="&lt;font&gt;US accepts it&lt;/font&gt;" style="text;html=1;strokeColor=none;fillColor=none;align=center;verticalAlign=middle;whiteSpace=wrap;rounded=0;" vertex="1" parent="1">
          <mxGeometry x="2001.86" y="254" width="73.71" height="10" as="geometry" />
        </mxCell>
        <mxCell id="_WFTsrjcb9pCngMvxU52-54" value="&lt;font&gt;US declines it&lt;/font&gt;" style="text;html=1;strokeColor=none;fillColor=none;align=center;verticalAlign=middle;whiteSpace=wrap;rounded=0;" vertex="1" parent="1">
          <mxGeometry x="2000.93" y="383" width="75.57" height="14.48" as="geometry" />
        </mxCell>
        <mxCell id="_WFTsrjcb9pCngMvxU52-59" style="edgeStyle=orthogonalEdgeStyle;rounded=0;orthogonalLoop=1;jettySize=auto;html=1;" edge="1" parent="1" source="_WFTsrjcb9pCngMvxU52-55" target="_WFTsrjcb9pCngMvxU52-13">
          <mxGeometry relative="1" as="geometry" />
        </mxCell>
        <mxCell id="_WFTsrjcb9pCngMvxU52-55" value="" style="points=[[0.25,0.25,0],[0.5,0,0],[0.75,0.25,0],[1,0.5,0],[0.75,0.75,0],[0.5,1,0],[0.25,0.75,0],[0,0.5,0]];shape=mxgraph.bpmn.gateway2;html=1;verticalLabelPosition=bottom;labelBackgroundColor=#ffffff;verticalAlign=top;align=center;perimeter=rhombusPerimeter;outlineConnect=0;outline=none;symbol=none;gwType=exclusive;aspect=fixed;" vertex="1" parent="1">
          <mxGeometry x="2130.0027431585136" y="307.24459341152715" width="47.42" height="40" as="geometry" />
        </mxCell>
        <mxCell id="_WFTsrjcb9pCngMvxU52-56" style="edgeStyle=orthogonalEdgeStyle;rounded=0;orthogonalLoop=1;jettySize=auto;html=1;entryX=0.5;entryY=0;entryDx=0;entryDy=0;entryPerimeter=0;exitX=0.5;exitY=0;exitDx=0;exitDy=0;exitPerimeter=0;" edge="1" parent="1" source="_WFTsrjcb9pCngMvxU52-52" target="_WFTsrjcb9pCngMvxU52-55">
          <mxGeometry relative="1" as="geometry">
            <Array as="points">
              <mxPoint x="1924" y="271" />
              <mxPoint x="2154" y="271" />
              <mxPoint x="2154" y="308" />
            </Array>
          </mxGeometry>
        </mxCell>
        <mxCell id="_WFTsrjcb9pCngMvxU52-57" style="edgeStyle=orthogonalEdgeStyle;rounded=0;orthogonalLoop=1;jettySize=auto;html=1;entryX=0.5;entryY=1;entryDx=0;entryDy=0;entryPerimeter=0;exitX=0.5;exitY=1;exitDx=0;exitDy=0;exitPerimeter=0;" edge="1" parent="1" source="_WFTsrjcb9pCngMvxU52-52" target="_WFTsrjcb9pCngMvxU52-55">
          <mxGeometry relative="1" as="geometry">
            <Array as="points">
              <mxPoint x="1924" y="381" />
              <mxPoint x="2154" y="381" />
              <mxPoint x="2154" y="348" />
            </Array>
          </mxGeometry>
        </mxCell>
        <mxCell id="_WFTsrjcb9pCngMvxU52-58" style="edgeStyle=orthogonalEdgeStyle;rounded=0;orthogonalLoop=1;jettySize=auto;html=1;entryX=0;entryY=0.5;entryDx=0;entryDy=0;entryPerimeter=0;" edge="1" parent="1" source="_WFTsrjcb9pCngMvxU52-7" target="_WFTsrjcb9pCngMvxU52-52">
          <mxGeometry relative="1" as="geometry" />
        </mxCell>
        <mxCell id="_WFTsrjcb9pCngMvxU52-85" style="edgeStyle=orthogonalEdgeStyle;rounded=0;orthogonalLoop=1;jettySize=auto;html=1;entryX=1;entryY=0.5;entryDx=0;entryDy=0;entryPerimeter=0;" edge="1" parent="1" source="_WFTsrjcb9pCngMvxU52-98" target="_WFTsrjcb9pCngMvxU52-16">
          <mxGeometry relative="1" as="geometry" />
        </mxCell>
        <mxCell id="_WFTsrjcb9pCngMvxU52-34" value="&lt;font&gt;CO finalizes the outcome&lt;/font&gt;" style="text;html=1;strokeColor=none;fillColor=none;align=center;verticalAlign=middle;whiteSpace=wrap;rounded=0;" vertex="1" parent="1">
          <mxGeometry x="2300" y="178.18000000000006" width="150" height="12.25" as="geometry" />
        </mxCell>
        <mxCell id="_WFTsrjcb9pCngMvxU52-90" style="edgeStyle=orthogonalEdgeStyle;rounded=0;orthogonalLoop=1;jettySize=auto;html=1;entryX=0;entryY=0.5;entryDx=0;entryDy=0;entryPerimeter=0;" edge="1" parent="1" source="_WFTsrjcb9pCngMvxU52-13" target="_WFTsrjcb9pCngMvxU52-2">
          <mxGeometry relative="1" as="geometry" />
        </mxCell>
        <mxCell id="_WFTsrjcb9pCngMvxU52-99" value="" style="edgeStyle=orthogonalEdgeStyle;rounded=0;orthogonalLoop=1;jettySize=auto;html=1;entryX=1;entryY=0.5;entryDx=0;entryDy=0;entryPerimeter=0;" edge="1" parent="1" source="_WFTsrjcb9pCngMvxU52-13" target="_WFTsrjcb9pCngMvxU52-98">
          <mxGeometry relative="1" as="geometry">
            <mxPoint x="2240" y="195" as="sourcePoint" />
            <mxPoint x="1541" y="195" as="targetPoint" />
          </mxGeometry>
        </mxCell>
        <mxCell id="_WFTsrjcb9pCngMvxU52-98" value="&lt;font&gt;Notify US and CO of selection status&lt;/font&gt;" style="points=[[0.25,0,0],[0.5,0,0],[0.75,0,0],[1,0.25,0],[1,0.5,0],[1,0.75,0],[0.75,1,0],[0.5,1,0],[0.25,1,0],[0,0.75,0],[0,0.5,0],[0,0.25,0]];shape=mxgraph.bpmn.task;whiteSpace=wrap;rectStyle=rounded;size=10;html=1;container=1;expand=0;collapsible=0;taskMarker=abstract;" vertex="1" parent="1">
          <mxGeometry x="1971.85" y="167.95" width="133.71" height="54.48" as="geometry" />
        </mxCell>
      </root>
    </mxGraphModel>
  </diagram>
</mxfile>
